# xmcd CD database file
#
# Track frame offsets:
#	150
#	15658
#	29025
#	61595
#	78833
#	91005
#	106413
#	121630
#	138123
#	157000
#	180290
#	196425
#	212103
#	223961
#	236333
#	251336
#
# Disc length: 3514 seconds
#
# Revision: 2
# Processed by: cddbd v1.5.2PL0 Copyright (c) Steve Scherf et al.
# Submitted via: CDex 1.70
#
DISCID=c90db810
DTITLE=John Philip Sousa - Music for wind band - Volume 5
DYEAR=2002
DGENRE=Band music
TTITLE0=The Minnesota March (1927)
TTITLE1=The Thunderer (1889)
TTITLE2=The Charlatan Waltzes (1898)
TTITLE3=The Pride of the Wolverines (1926)
TTITLE4=University of Nebraska (1928)
TTITLE5=The Gallant Seventh (1922)
TTITLE6=Powhattan's Daughter (1907)
TTITLE7=Cubaland Suite (1925) - 1 Under the Spanish Flag
TTITLE8=Cubaland Suite (1925) - 2 Under the American Flag
TTITLE9=Cuabalnd Suite (1925) - 3 Under the Cuban Flag
TTITLE10=Geaorge Washington Bicentennial (1930)
TTITLE11=The Diplomat (1904)
TTITLE12=The Directorate (1894)
TTITLE13=Our Flirtation (1880)
TTITLE14=Sabre and Spurs (1918)
TTITLE15=The Atlantic City Pageant (1927)
EXTD=YEAR: 2002
EXTT0=
EXTT1=
EXTT2=
EXTT3=
EXTT4=
EXTT5=
EXTT6=
EXTT7=
EXTT8=
EXTT9=
EXTT10=
EXTT11=
EXTT12=
EXTT13=
EXTT14=
EXTT15=
PLAYORDER=
